<?xml version="1.0" standalone="no"?>
<!DOCTYPE svg PUBLIC "-//W3C//DTD SVG 20010904//EN"
 "http://www.w3.org/TR/2001/REC-SVG-20010904/DTD/svg10.dtd">
<svg version="1.0" xmlns="http://www.w3.org/2000/svg"
 width="1193.000000pt" height="1280.000000pt" viewBox="0 0 1193.000000 1280.000000"
 preserveAspectRatio="xMidYMid meet">
<metadata>
Created by potrace 1.15, written by Peter Selinger 2001-2017
</metadata>
<g transform="translate(0.000000,1280.000000) scale(0.100000,-0.100000)"
fill="#000000" stroke="none">
<path d="M1731 12753 c-116 -66 -169 -117 -222 -211 l-44 -80 -100 1 c-116 2
-140 -8 -180 -78 -29 -48 -31 -90 -10 -172 8 -31 15 -87 15 -125 l0 -67 -112
40 c-142 51 -317 96 -400 104 -75 7 -111 -10 -155 -76 -23 -35 -28 -54 -31
-128 -4 -78 5 -155 23 -202 6 -15 1 -15 -47 -3 -29 8 -61 14 -71 14 -36 0 -77
-31 -116 -88 -65 -96 -151 -255 -151 -280 0 -30 25 -79 59 -115 l26 -29 -36
-31 c-58 -51 -89 -108 -96 -171 -5 -46 -3 -60 13 -78 33 -37 98 -58 206 -68
57 -5 135 -19 173 -30 84 -25 325 -70 374 -70 79 0 137 72 134 165 -1 28 -11
84 -23 125 -25 90 -35 159 -26 195 10 38 44 47 119 32 73 -14 73 -11 20 -137
-51 -124 -57 -150 -43 -199 10 -37 18 -46 58 -64 42 -20 64 -22 214 -22 93 0
168 -2 168 -5 0 -2 -8 -24 -17 -48 -14 -38 -15 -52 -5 -101 l12 -56 -38 -35
c-21 -19 -78 -69 -128 -112 -198 -169 -413 -406 -518 -571 -79 -124 -211 -367
-256 -471 -87 -204 -169 -471 -204 -666 -50 -277 -70 -648 -45 -865 7 -66 13
-142 14 -170 l0 -50 -65 -34 c-75 -40 -149 -110 -180 -171 -13 -26 -25 -77
-32 -136 -9 -89 -9 -97 18 -176 48 -145 66 -179 138 -246 37 -34 89 -73 116
-87 65 -33 182 -57 236 -49 l41 6 63 -124 c115 -224 300 -507 436 -663 280
-323 627 -597 980 -773 204 -103 529 -215 753 -261 86 -18 302 -51 333 -51 4
0 8 -28 8 -62 0 -58 -15 -100 -201 -566 -111 -277 -200 -504 -198 -506 2 -2
76 -34 164 -71 88 -37 164 -72 169 -76 19 -17 -47 -475 -105 -733 -72 -320
-201 -717 -280 -867 -44 -81 -121 -155 -204 -195 -80 -38 -125 -48 -318 -70
-162 -18 -245 -41 -307 -88 -83 -62 -152 -213 -129 -283 11 -36 61 -83 87 -83
9 0 -16 -16 -56 -36 -124 -60 -156 -145 -102 -274 72 -172 201 -270 354 -270
l51 0 -27 -23 c-59 -48 -56 -112 9 -219 115 -192 248 -232 468 -142 17 7 16 3
-7 -25 -40 -47 -38 -99 4 -147 65 -74 284 -154 381 -140 64 10 138 48 178 93
l37 41 4 -80 c3 -77 5 -81 39 -113 82 -75 300 -73 461 4 92 44 182 123 303
268 258 309 427 568 589 904 114 235 177 396 351 891 l37 107 72 -53 c414
-303 860 -443 1345 -423 129 5 347 29 392 43 14 4 18 -10 23 -103 9 -142 30
-269 60 -373 122 -420 451 -697 958 -804 200 -43 282 -50 533 -50 297 -1 571
29 785 85 96 25 277 113 360 176 81 60 205 178 245 232 17 22 32 41 35 41 3 0
4 -18 2 -40 -6 -58 28 -122 86 -160 85 -56 286 -102 452 -102 101 -1 156 18
200 68 l29 34 15 -29 c25 -47 77 -66 181 -65 146 1 242 40 280 115 8 15 15 55
15 89 l0 60 37 -41 c100 -111 224 -112 366 -4 68 52 87 100 87 223 0 56 3 102
8 102 4 0 16 -16 27 -36 104 -194 347 -57 419 238 41 165 45 408 12 613 -80
480 -364 898 -741 1087 -139 70 -271 106 -448 123 -58 6 -68 9 -62 23 4 10 16
53 27 97 104 417 83 884 -59 1295 -37 106 -131 301 -188 390 -173 269 -462
536 -700 646 -260 120 -487 160 -858 151 -294 -7 -498 -35 -897 -123 -85 -19
-155 -34 -156 -34 0 0 -4 33 -7 73 -19 217 -164 466 -333 570 -191 118 -463
81 -770 -104 -115 -70 -114 -67 -114 -210 0 -141 37 -284 106 -404 l42 -75
-27 6 c-71 17 -207 70 -306 120 -144 72 -300 182 -535 378 -182 151 -190 159
-177 180 237 361 397 808 462 1286 23 167 31 499 16 645 -15 141 -85 568 -100
607 -10 26 -7 29 44 64 66 43 117 101 152 169 22 43 26 62 26 155 1 115 -22
221 -83 377 -38 100 -68 130 -157 154 -98 28 -181 25 -280 -10 -59 -20 -85
-25 -91 -17 -5 6 -21 32 -35 58 -35 61 -159 227 -268 358 -102 124 -302 319
-432 424 -299 239 -711 455 -1057 555 -117 33 -390 91 -432 91 -17 0 -28 5
-28 14 0 8 51 61 113 119 137 129 132 124 226 222 43 44 101 102 129 128 58
53 92 111 92 155 0 88 -188 151 -452 152 -79 0 -93 6 -60 27 22 13 52 72 52
101 0 39 -47 80 -107 93 -51 12 -62 11 -121 -10 -35 -12 -66 -20 -68 -18 -9 9
-24 115 -24 174 0 35 -4 73 -10 83 -16 31 -64 59 -128 75 -51 13 -66 14 -99 2
-59 -20 -155 -90 -267 -193 l-101 -94 -4 58 c-1 31 3 99 9 149 11 81 10 104
-5 182 -9 49 -26 103 -36 121 -27 44 -113 82 -189 83 -71 0 -107 -20 -220
-128 -42 -40 -85 -77 -97 -84 -13 -6 -52 -33 -87 -60 -82 -63 -216 -114 -216
-83 0 15 65 75 114 105 95 59 135 157 84 204 -33 30 -57 40 -108 47 -41 6 -52
3 -129 -41z m607 -774 c45 -7 82 -15 82 -19 0 -3 -23 -37 -50 -75 -28 -38 -53
-78 -56 -89 -6 -17 -8 -17 -30 8 -32 34 -86 61 -162 81 -69 17 -112 35 -112
45 0 3 28 13 63 22 34 9 85 23 112 31 28 8 55 13 60 11 6 -1 47 -8 93 -15z
m-608 -206 c0 -17 12 -26 57 -43 31 -11 78 -26 104 -31 46 -10 48 -12 42 -40
-8 -40 21 -113 58 -143 l29 -25 -41 -85 c-33 -67 -40 -93 -35 -118 12 -63 39
-93 132 -141 49 -25 98 -52 108 -60 19 -14 18 -15 -20 -35 -69 -35 -229 -91
-290 -101 -32 -6 -69 -13 -81 -17 -19 -5 -23 -2 -23 18 0 13 -16 56 -35 96
-27 58 -41 76 -67 87 -64 26 -129 32 -222 18 -49 -7 -91 -11 -93 -10 -1 2 15
44 37 93 22 49 40 98 40 108 0 37 -42 107 -80 132 -50 33 -166 74 -212 74 -20
0 -39 4 -43 9 -6 10 97 105 159 148 l37 24 59 -20 c33 -12 75 -21 94 -21 56 0
127 37 195 103 l65 62 12 -30 c7 -16 13 -40 14 -52z m579 -132 c67 -62 181
-65 368 -8 l112 34 24 -26 c32 -33 53 -77 62 -123 7 -34 5 -38 -32 -61 -45
-28 -73 -78 -73 -128 0 -48 -105 -150 -173 -167 -45 -12 -48 -11 -94 22 -27
19 -88 57 -136 86 -49 28 -90 57 -93 65 -3 7 10 34 28 60 27 38 33 56 33 99 0
46 -5 59 -37 99 -24 28 -36 51 -32 61 8 21 7 21 43 -13z m827 -430 c-4 -6 -22
-11 -40 -11 -29 0 -34 4 -39 27 -3 15 -1 36 5 47 9 17 13 16 45 -17 20 -19 32
-40 29 -46z"/>
</g>
</svg>
